<svg xmlns="http://www.w3.org/2000/svg" viewBox="0 0 600 320" width="600" height="320" font-family="-apple-system, 'SF Pro Text', system-ui, sans-serif">
  <defs>
    <linearGradient id="bgGr" x1="0" y1="0" x2="1" y2="1">
      <stop offset="0" stop-color="#0a0d10"/>
      <stop offset="1" stop-color="#15181c"/>
    </linearGradient>
    <linearGradient id="hudGr" x1="0" y1="0" x2="1" y2="0">
      <stop offset="0" stop-color="#1a1d20"/>
      <stop offset="1" stop-color="#262a2e"/>
    </linearGradient>
    <pattern id="bgGrid" width="22" height="22" patternUnits="userSpaceOnUse">
      <path d="M22 0H0V22" fill="none" stroke="#fff" stroke-width="0.5" stroke-opacity="0.025"/>
    </pattern>
  </defs>

  <rect width="600" height="320" fill="url(#bgGr)"/>
  <rect width="600" height="320" fill="url(#bgGrid)"/>

  <!-- Title -->
  <text x="300" y="42" font-size="14" font-weight="600" letter-spacing="2" fill="#7d8480" text-anchor="middle">FLOATING HUD · LIVE WAVEFORM</text>

  <!-- Idle state -->
  <text x="100" y="100" font-size="12" fill="#9ca09b" font-weight="600">IDLE</text>
  <g transform="translate(100, 115)">
    <rect width="180" height="48" rx="24" fill="url(#hudGr)" stroke="#3a3e41" stroke-width="1"/>
    <circle cx="24" cy="24" r="9" fill="#3a3e41"/>
    <circle cx="24" cy="24" r="4" fill="#181a1d"/>
    <g transform="translate(46, 24)" opacity="0.3">
      <rect x="0" y="-2" width="2" height="4" rx="1" fill="#9ca09b"/>
      <rect x="6" y="-3" width="2" height="6" rx="1" fill="#9ca09b"/>
      <rect x="12" y="-2" width="2" height="4" rx="1" fill="#9ca09b"/>
      <rect x="18" y="-3" width="2" height="6" rx="1" fill="#9ca09b"/>
      <rect x="24" y="-2" width="2" height="4" rx="1" fill="#9ca09b"/>
      <rect x="30" y="-3" width="2" height="6" rx="1" fill="#9ca09b"/>
      <rect x="36" y="-2" width="2" height="4" rx="1" fill="#9ca09b"/>
      <rect x="42" y="-3" width="2" height="6" rx="1" fill="#9ca09b"/>
      <rect x="48" y="-2" width="2" height="4" rx="1" fill="#9ca09b"/>
      <rect x="54" y="-3" width="2" height="6" rx="1" fill="#9ca09b"/>
      <rect x="60" y="-2" width="2" height="4" rx="1" fill="#9ca09b"/>
      <rect x="66" y="-3" width="2" height="6" rx="1" fill="#9ca09b"/>
      <rect x="72" y="-2" width="2" height="4" rx="1" fill="#9ca09b"/>
      <rect x="78" y="-3" width="2" height="6" rx="1" fill="#9ca09b"/>
      <rect x="84" y="-2" width="2" height="4" rx="1" fill="#9ca09b"/>
      <rect x="90" y="-3" width="2" height="6" rx="1" fill="#9ca09b"/>
      <rect x="96" y="-2" width="2" height="4" rx="1" fill="#9ca09b"/>
      <rect x="102" y="-3" width="2" height="6" rx="1" fill="#9ca09b"/>
    </g>
  </g>
  <text x="190" y="190" font-size="11" fill="#9ca09b" text-anchor="middle">Press hotkey to start</text>

  <!-- Recording state -->
  <text x="320" y="100" font-size="12" fill="#d7bc84" font-weight="600">RECORDING</text>
  <g transform="translate(320, 115)">
    <rect width="180" height="48" rx="24" fill="url(#hudGr)" stroke="#d7bc84" stroke-width="1.5" stroke-opacity="0.7"/>
    <circle cx="24" cy="24" r="9" fill="#d7bc84"/>
    <circle cx="24" cy="24" r="11" fill="none" stroke="#d7bc84" stroke-opacity="0.5"/>
    <circle cx="24" cy="24" r="14" fill="none" stroke="#d7bc84" stroke-opacity="0.2"/>
    <rect x="20" y="20" width="8" height="8" rx="2" fill="#0a0d10"/>
    <g transform="translate(46, 24)">
      <rect x="0" y="-4" width="2" height="8" rx="1" fill="#d7bc84"/>
      <rect x="6" y="-9" width="2" height="18" rx="1" fill="#d7bc84"/>
      <rect x="12" y="-12" width="2" height="24" rx="1" fill="#d7bc84"/>
      <rect x="18" y="-7" width="2" height="14" rx="1" fill="#d7bc84"/>
      <rect x="24" y="-11" width="2" height="22" rx="1" fill="#d7bc84"/>
      <rect x="30" y="-8" width="2" height="16" rx="1" fill="#d7bc84"/>
      <rect x="36" y="-5" width="2" height="10" rx="1" fill="#d7bc84"/>
      <rect x="42" y="-10" width="2" height="20" rx="1" fill="#d7bc84"/>
      <rect x="48" y="-13" width="2" height="26" rx="1" fill="#d7bc84"/>
      <rect x="54" y="-7" width="2" height="14" rx="1" fill="#d7bc84"/>
      <rect x="60" y="-3" width="2" height="6" rx="1" fill="#d7bc84"/>
      <rect x="66" y="-9" width="2" height="18" rx="1" fill="#d7bc84"/>
      <rect x="72" y="-6" width="2" height="12" rx="1" fill="#d7bc84"/>
      <rect x="78" y="-10" width="2" height="20" rx="1" fill="#d7bc84"/>
      <rect x="84" y="-8" width="2" height="16" rx="1" fill="#d7bc84"/>
      <rect x="90" y="-4" width="2" height="8" rx="1" fill="#d7bc84"/>
      <rect x="96" y="-11" width="2" height="22" rx="1" fill="#d7bc84"/>
      <rect x="102" y="-7" width="2" height="14" rx="1" fill="#d7bc84"/>
      <rect x="108" y="-3" width="2" height="6" rx="1" fill="#d7bc84"/>
    </g>
  </g>
  <text x="410" y="190" font-size="11" fill="#d7bc84" text-anchor="middle">Listening · 0:02</text>

  <!-- Mode chips -->
  <text x="40" y="240" font-size="11" letter-spacing="2" fill="#7d8480" font-weight="700">THREE MODES, ONE HUD</text>

  <g transform="translate(40, 254)">
    <rect width="156" height="40" rx="10" fill="#161a1d" stroke="#5cb3ff" stroke-opacity="0.4" stroke-width="1"/>
    <circle cx="20" cy="20" r="5" fill="#5cb3ff"/>
    <text x="36" y="18" font-size="12" fill="#fafaf6" font-weight="600">Dictation</text>
    <text x="36" y="32" font-size="10" fill="#9ca09b">Insert text at cursor</text>
  </g>
  <g transform="translate(206, 254)">
    <rect width="156" height="40" rx="10" fill="#161a1d" stroke="#d7bc84" stroke-opacity="0.4" stroke-width="1"/>
    <circle cx="20" cy="20" r="5" fill="#d7bc84"/>
    <text x="36" y="18" font-size="12" fill="#fafaf6" font-weight="600">Command</text>
    <text x="36" y="32" font-size="10" fill="#9ca09b">Agent acts on screen</text>
  </g>
  <g transform="translate(372, 254)">
    <rect width="186" height="40" rx="10" fill="#161a1d" stroke="#5ee2b7" stroke-opacity="0.4" stroke-width="1"/>
    <circle cx="20" cy="20" r="5" fill="#5ee2b7"/>
    <text x="36" y="18" font-size="12" fill="#fafaf6" font-weight="600">Quick Ask</text>
    <text x="36" y="32" font-size="10" fill="#9ca09b">Answer in overlay</text>
  </g>
</svg>
